<svg xmlns="http://www.w3.org/2000/svg" data-name="Layer 1" viewBox="0 0 100 125" x="0px" y="0px"><title>6</title><path d="M4.99994,42.43512A36.57338,36.57338,0,0,1,29.41266,7.94684,35.79511,35.79511,0,0,0,73.21454,60.73718,36.56167,36.56167,0,0,1,4.99994,42.43512Zm45.18854-21.5578-2.34211,9.26727a.10279.10279,0,0,0,.15442.11218l8.09-5.09118,8.09,5.09118a.10282.10282,0,0,0,.15448-.11218l-2.34211-9.26727,7.342-6.12079a.10284.10284,0,0,0-.059-.18158l-9.53747-.63629L56.18628,5.06458a.10283.10283,0,0,0-.19092,0l-3.55243,8.87408-9.53747.63629a.10283.10283,0,0,0-.059.18158ZM21.75574,85.06183l-6.03809-.40289-2.249-5.618a.0651.0651,0,0,0-.12085,0l-2.249,5.618-6.038.40289a.06509.06509,0,0,0-.03735.11493L9.67157,89.0517,8.18878,94.91876a.06512.06512,0,0,0,.09778.071l5.1217-3.22321L18.53,94.98981a.06507.06507,0,0,0,.09772-.071L17.145,89.0517l4.64813-3.87494A.06509.06509,0,0,0,21.75574,85.06183ZM80.066,41.296l-1.82318,7.21423a.08.08,0,0,0,.12024.08735l6.29773-3.96326,6.29773,3.96326a.08.08,0,0,0,.12024-.08735L89.25562,41.296,94.971,36.53125a.08.08,0,0,0-.0459-.14136l-7.42456-.49536-2.76544-6.90808a.08.08,0,0,0-.14856,0l-2.76544,6.90808-7.42456.49536a.08.08,0,0,0-.0459.14136Zm-.53815,41.31775L77.639,90.088a.08292.08292,0,0,0,.12457.09046l6.52472-4.10614,6.52466,4.10614a.08291.08291,0,0,0,.12456-.09046l-1.88891-7.47424L94.97,77.67725a.08287.08287,0,0,0-.04755-.14637l-7.69213-.51324-2.86506-7.157a.083.083,0,0,0-.154,0l-2.865,7.157-7.69214.51324a.08287.08287,0,0,0-.04754.14637Z"/><text x="0" y="115" fill="#000000" font-size="5px" font-weight="bold" font-family="'Helvetica Neue', Helvetica, Arial-Unicode, Arial, Sans-serif">Created by Hrbon</text><text x="0" y="120" fill="#000000" font-size="5px" font-weight="bold" font-family="'Helvetica Neue', Helvetica, Arial-Unicode, Arial, Sans-serif">from the Noun Project</text></svg>