<svg xmlns="http://www.w3.org/2000/svg" xmlns:xlink="http://www.w3.org/1999/xlink" version="1.1" x="0px" y="0px" viewBox="0 0 62 77.5" enable-background="new 0 0 62 62" xml:space="preserve"><path fill="#ffffff" d="M31,20.191c-5.961,0-10.809,4.849-10.809,10.809S25.039,41.81,31,41.81S41.809,36.96,41.809,31S36.961,20.191,31,20.191z   M31,39.56c-4.719,0-8.559-3.84-8.559-8.559s3.84-8.559,8.559-8.559c4.721,0,8.559,3.84,8.559,8.559S35.721,39.56,31,39.56z"/><rect style="fill:#ffffff" x="29.875" y="9.014" width="2.25" height="6.717"/><rect style="fill:#ffffff" x="14.471" y="16.703" transform="matrix(0.7072 0.707 -0.707 0.7072 17.8262 -7.3852)" width="6.717" height="2.25"/><rect style="fill:#ffffff" x="9.014" y="29.875" width="6.717" height="2.25"/><rect style="fill:#ffffff" x="16.704" y="40.814" transform="matrix(-0.7073 -0.7069 0.7069 -0.7073 -0.7848 88.0193)" width="2.25" height="6.717"/><rect style="fill:#ffffff" x="29.876" y="46.269" width="2.25" height="6.718"/><rect style="fill:#ffffff" x="40.814" y="43.046" transform="matrix(-0.7071 -0.7071 0.7071 -0.7071 44.1735 106.641)" width="6.718" height="2.251"/><rect style="fill:#ffffff" x="46.27" y="29.875" width="6.719" height="2.25"/><rect style="fill:#ffffff" x="43.048" y="14.469" transform="matrix(0.7073 0.7069 -0.7069 0.7073 25.5309 -26.0075)" width="2.25" height="6.718"/></svg>